<?xml version="1.0" encoding="UTF-8" standalone="no"?>
<!-- Generator: Adobe Illustrator 27.5.0, SVG Export Plug-In . SVG Version: 6.00 Build 0)  -->

<svg
   version="1.1"
   id="Layer_1"
   x="0px"
   y="0px"
   viewBox="0 0 841.89 708.28"
   style="enable-background:new 0 0 841.89 708.28;"
   xml:space="preserve"
   sodipodi:docname="logo.svg"
   inkscape:version="1.1 (c4e8f9e, 2021-05-24)"
   xmlns:inkscape="http://www.inkscape.org/namespaces/inkscape"
   xmlns:sodipodi="http://sodipodi.sourceforge.net/DTD/sodipodi-0.dtd"
   xmlns="http://www.w3.org/2000/svg"
   xmlns:svg="http://www.w3.org/2000/svg"><defs
   id="defs485" /><sodipodi:namedview
   id="namedview483"
   pagecolor="#ffffff"
   bordercolor="#666666"
   borderopacity="1.0"
   inkscape:pageshadow="2"
   inkscape:pageopacity="0.0"
   inkscape:pagecheckerboard="0"
   showgrid="false"
   inkscape:zoom="0.41531091"
   inkscape:cx="268.47357"
   inkscape:cy="309.40676"
   inkscape:window-width="1920"
   inkscape:window-height="1003"
   inkscape:window-x="1920"
   inkscape:window-y="0"
   inkscape:window-maximized="1"
   inkscape:current-layer="Layer_1" />
<style
   type="text/css"
   id="style429">
	.st0{fill:#0C3F6C;}
	.st1{fill:#646363;}
	.st2{fill:url(#SVGID_1_);}
</style>
<g
   id="g480"
   transform="matrix(1.3645649,0,0,1.3645649,-144.10046,-127.30095)">
	<polygon
   class="st0"
   points="624.9,201.7 568.75,257.84 568.75,448.28 568.76,448.28 624.85,448.28 624.92,448.28 "
   id="polygon431" />
	<polyline
   class="st0"
   points="233.01,98.51 233.01,176.9 328.43,272.67 328.43,193.69 233.01,98.51  "
   id="polyline433" />
	<polyline
   class="st0"
   points="624.92,96.99 429.04,294.04 390.52,255.62 390.52,334.98 429.04,373.63 624.9,176.63 624.92,96.99     "
   id="polyline435" />
	<polygon
   class="st0"
   points="290.33,448.28 289.78,258.73 233.01,201.96 233,448.28 "
   id="polygon437" />
	<polygon
   class="st1"
   points="514.05,393.21 514.05,313.04 457.96,369.13 457.96,449.63 "
   id="polygon439" />
	<polygon
   class="st1"
   points="428.7,234.65 428.7,265.17 513.99,179.88 513.99,164.21 506.56,156.78 "
   id="polygon441" />
	<g
   id="g451">
		<path
   class="st1"
   d="m 389.06,589.8 v 20.57 h -4.62 L 383.27,606 c -2.54,3.15 -6.25,5.03 -11.23,5.03 -10.67,0 -18.29,-7.92 -18.29,-18.44 0,-10.46 7.62,-18.39 18.29,-18.39 6.4,0 11.68,2.84 14.93,7.42 l -8.74,5.74 c -1.32,-1.83 -3.45,-3 -6.2,-3 -4.88,0 -7.82,3.61 -7.82,8.23 0,4.67 2.95,8.69 7.82,8.69 3.5,0 5.89,-1.37 7.01,-4.11 h -7.92 v -7.37 z"
   id="path443" />
		<path
   class="st1"
   d="m 433.56,594.27 v 16.1 h -9.14 v -14.33 c 0,-1.98 -1.27,-3.05 -3,-3.05 -1.78,0 -3,1.07 -3,3.05 v 14.33 h -9.14 v -14.33 c 0,-1.98 -1.22,-3.05 -2.95,-3.05 -1.78,0 -3,1.07 -3,3.05 v 14.33 h -9.19 v -25.75 h 9.19 v 2.08 c 1.32,-1.52 3.3,-2.69 6.35,-2.69 3.66,0 5.79,1.47 7.06,3.4 1.57,-1.83 4.01,-3.4 7.57,-3.4 7.83,0 9.25,6.5 9.25,10.26 z"
   id="path445" />
		<path
   class="st1"
   d="m 466.72,597.52 c 0,6.76 -3.96,13.51 -11.99,13.51 -3.15,0 -5.28,-1.07 -6.71,-2.74 v 2.08 h -9.14 v -35.56 h 9.14 v 11.89 c 1.42,-1.63 3.56,-2.69 6.71,-2.69 8.03,0 11.99,6.76 11.99,13.51 z m -9.24,0 c 0,-2.69 -1.73,-4.62 -4.57,-4.62 -2.74,0 -4.62,1.88 -4.62,4.62 0,2.74 1.88,4.57 4.62,4.57 2.84,0 4.57,-1.93 4.57,-4.57 z"
   id="path447" />
		<path
   class="st1"
   d="m 502.89,574.82 v 35.56 H 492.38 V 597.17 H 481.3 v 13.21 h -10.51 v -35.56 h 10.51 v 12.95 h 11.07 v -12.95 z"
   id="path449" />
	</g>
	<g
   id="g469">
		<path
   class="st1"
   d="m 190.24,529.86 h -8.4 v 24.89 h -22.87 v -77.44 h 31.71 c 21.32,0 31.71,10.73 31.71,27.77 0,9.85 -3.98,16.59 -11.05,20.47 l 16.46,29.21 h -24.97 z m -8.4,-17.92 h 8.84 c 5.19,0 8.62,-1.77 8.62,-6.86 0,-4.65 -2.65,-6.97 -8.62,-6.97 h -8.84 z"
   id="path453" />
		<path
   class="st1"
   d="m 286.02,532.19 -38.78,0.11 c 1.55,5.31 5.74,8.41 12.26,8.41 4.97,0 8.62,-2.54 10.38,-4.65 l 13.37,7.96 c -3.98,6.97 -12.81,12.17 -23.75,12.17 -18.89,0 -31.71,-11.84 -31.71,-29.32 0,-16.48 12.48,-29.54 29.61,-29.54 16.58,0.01 31.16,12.18 28.62,34.86 z m -18.23,-10.85 c -1.1,-5.2 -4.53,-8.52 -10.38,-8.52 -5.08,0 -8.73,3.43 -10.16,8.63 z"
   id="path455" />
		<path
   class="st1"
   d="m 349.1,498.67 -21.76,56.09 H 308 l -21.65,-56.09 h 20.99 l 10.38,32.75 10.38,-32.75 z"
   id="path457" />
		<path
   class="st1"
   d="m 409.19,526.77 c 0,17.15 -12.59,29.43 -30.05,29.43 -17.46,0 -30.05,-12.28 -30.05,-29.43 0,-17.15 12.59,-29.43 30.05,-29.43 17.46,0 30.05,12.28 30.05,29.43 z m -20.1,0 c 0,-6.2 -4.2,-10.07 -9.94,-10.07 -5.74,0 -10.05,3.87 -10.05,10.07 0,6.19 4.31,9.96 10.05,9.96 5.74,0 9.94,-3.77 9.94,-9.96 z"
   id="path459" />
		<path
   class="st0"
   d="m 503.76,477.32 v 77.44 h -22.87 v -42.48 l -18.12,31.64 h -6.96 l -18.23,-31.64 v 42.48 h -22.87 v -77.44 h 24.86 l 19.66,34.74 19.77,-34.74 z"
   id="path461" />
		<path
   class="st0"
   d="m 562.97,519.91 v 34.85 h -20 v -5.2 c -2.87,4.31 -9.39,6.64 -14.91,6.64 -6.96,0 -18.78,-2.88 -18.78,-16.48 0,-18.81 23.42,-18.81 27.18,-18.81 2.54,0 5.41,0 6.52,0 0,-5.2 -2.98,-8.08 -8.06,-8.08 -3.76,0 -7.73,1.44 -9.94,3.21 l -12.7,-8.63 c 6.08,-6.42 14.69,-10.07 25.52,-10.07 17.88,0 25.17,9.18 25.17,22.57 z m -19.99,10.84 c -0.33,0 -0.88,0 -1.44,0 -8.84,0 -12.15,2.1 -12.15,5.64 0,2.65 1.99,4.65 5.52,4.65 3.76,0 6.63,-1.88 8.06,-3.98 v -6.31 z"
   id="path463" />
		<path
   class="st0"
   d="m 624.17,519.69 v 35.07 h -19.89 v -30.2 c 0,-4.42 -3.09,-7.63 -7.95,-7.63 -4.86,0 -7.95,3.21 -7.95,7.63 v 30.2 H 568.5 v -56.09 h 19.88 v 5.97 c 2.87,-3.98 7.62,-7.3 15.25,-7.3 17.56,0 20.54,14.16 20.54,22.35 z"
   id="path465" />
		<path
   class="st0"
   d="m 685.38,519.69 v 35.07 H 665.5 v -30.2 c 0,-4.42 -3.09,-7.63 -7.95,-7.63 -4.86,0 -7.95,3.21 -7.95,7.63 v 30.2 h -19.9 v -56.09 h 19.89 v 5.97 c 2.87,-3.98 7.62,-7.3 15.25,-7.3 17.55,0 20.54,14.16 20.54,22.35 z"
   id="path467" />
	</g>
	<polyline
   class="st1"
   points="345.78,94.72 345.78,150.81 345.78,447.68 401.87,447.68 401.87,150.81 457.96,150.81 457.96,234.13    514.05,178.04 514.05,152.92 457.77,94.72  "
   id="polyline471" />
	<linearGradient
   id="SVGID_1_"
   gradientUnits="userSpaceOnUse"
   x1="401.86292"
   y1="122.764"
   x2="457.9505"
   y2="122.764">
		<stop
   offset="0.4272"
   style="stop-color:#646363"
   id="stop473" />
		<stop
   offset="1"
   style="stop-color:#000000"
   id="stop475" />
	</linearGradient>
	<polygon
   class="st2"
   points="401.87,150.81 457.95,150.81 457.95,94.9 457.77,94.72 401.86,94.72 "
   id="polygon478"
   style="fill:url(#SVGID_1_)" />
</g>
</svg>
